<svg width="43" height="42" fill="none" xmlns="http://www.w3.org/2000/svg"><g filter="url(#a)" fill="#63D1BB"><path d="M4.306 13.953a16.044 16.044 0 0 0 0 6.232l4.176-3.165-4.176-3.067ZM28.852 1.586C23.963-.59 18.259-.59 13.269 1.982l7.638 5.54 7.945-5.936ZM38.528 13.062l-4.889 3.66 4.99 3.66c.51-2.373.51-4.946-.101-7.32ZM13.37 32.057c4.89 2.473 10.899 2.671 15.991.099l-8.25-6.035-7.74 5.936ZM12.046 14.249 5.732 9.698c-.306.692-.612 1.385-.815 2.078l5.398 3.957 1.731-1.484ZM22.945 24.835l8.453 6.134c.306-.198.612-.396.815-.594.306-.198.611-.495.917-.791l-8.454-6.134-1.731 1.385ZM15.611 11.578 8.074 6.137c-.51.495-.917 1.088-1.324 1.682l7.028 5.144 1.833-1.385ZM26.51 22.163l8.25 6.035c.509-.494.916-1.088 1.324-1.681l-7.843-5.739-1.732 1.386ZM19.176 8.907l-7.843-5.738c-.203.099-.407.297-.61.396-.408.296-.816.593-1.121.989l7.843 5.64 1.731-1.287ZM30.074 19.394l7.13 5.144c.306-.692.611-1.286.917-1.979l-6.213-4.55-1.834 1.385ZM30.89 2.674 4.916 22.362c.203.692.509 1.385.815 2.077L32.722 3.96c-.509-.494-1.12-.89-1.833-1.286ZM35.269 6.532c-.306-.395-.611-.791-.917-1.088L6.852 26.22c.204.494.51.89.815 1.187.102.198.305.396.407.494L35.778 7.127c-.204-.198-.306-.396-.51-.594ZM36.898 8.907 9.704 29.484c.509.495 1.12.99 1.731 1.385l26.482-19.984c-.306-.692-.611-1.385-1.019-1.978Z"/></g><defs><filter id="a" x="0" y="0" width="43" height="42" filterUnits="userSpaceOnUse" color-interpolation-filters="sRGB"><feFlood flood-opacity="0" result="BackgroundImageFix"/><feColorMatrix in="SourceAlpha" values="0 0 0 0 0 0 0 0 0 0 0 0 0 0 0 0 0 0 127 0" result="hardAlpha"/><feOffset dy="4"/><feGaussianBlur stdDeviation="2"/><feComposite in2="hardAlpha" operator="out"/><feColorMatrix values="0 0 0 0 0 0 0 0 0 0 0 0 0 0 0 0 0 0 0.25 0"/><feBlend in2="BackgroundImageFix" result="effect1_dropShadow_44_133"/><feBlend in="SourceGraphic" in2="effect1_dropShadow_44_133" result="shape"/></filter></defs></svg>