<svg width="16" height="6" viewBox="0 0 16 6" fill="none" xmlns="http://www.w3.org/2000/svg">
<g clip-path="url(#clip0_44_95)">
<rect x="-16" y="-2871" width="320" height="3932" fill="white"/>
<path d="M304 6C301.496 6 300.188 4.8 299.13 3.83478C298.184 2.97391 297.489 2.34783 296.014 2.34783C294.511 2.34783 293.843 2.97391 292.897 3.83478C291.84 4.8 290.532 6 288.028 6C285.523 6 284.216 4.8 283.158 3.83478C282.212 2.97391 281.517 2.34783 280.042 2.34783C278.567 2.34783 277.871 2.97391 276.925 3.83478C275.868 4.8 274.56 6 272.056 6C269.551 6 268.243 4.8 267.186 3.83478C266.24 2.97391 265.544 2.34783 264.07 2.34783C262.567 2.34783 261.899 2.97391 260.953 3.83478C259.896 4.8 258.588 6 256.083 6C253.579 6 252.271 4.8 251.214 3.83478C250.268 2.97391 249.572 2.34783 248.097 2.34783C246.595 2.34783 245.927 2.97391 244.981 3.83478C243.812 4.8 242.504 6 240 6C237.496 6 236.188 4.8 235.13 3.83478C234.184 2.97391 233.489 2.34783 232.014 2.34783C230.511 2.34783 229.843 2.97391 228.897 3.83478C227.84 4.8 226.532 6 224.028 6C221.523 6 220.216 4.8 219.158 3.83478C218.212 2.97391 217.517 2.34783 216.042 2.34783C214.539 2.34783 213.871 2.97391 212.925 3.83478C211.812 4.8 210.504 6 208 6C205.496 6 204.188 4.8 203.13 3.83478C202.184 2.97391 201.489 2.34783 200.014 2.34783C198.511 2.34783 197.843 2.97391 196.897 3.83478C195.84 4.8 194.532 6 192.028 6C189.523 6 188.216 4.8 187.158 3.83478C186.212 2.97391 185.517 2.34783 184.042 2.34783C182.567 2.34783 181.871 2.97391 180.925 3.83478C179.84 4.8 178.504 6 176 6C173.496 6 172.188 4.8 171.13 3.83478C170.184 2.97391 169.489 2.34783 168.014 2.34783C166.511 2.34783 165.843 2.97391 164.897 3.83478C163.84 4.8 162.532 6 160.028 6C157.523 6 156.216 4.8 155.158 3.83478C154.212 2.97391 153.517 2.34783 152.042 2.34783C150.539 2.34783 149.871 2.97391 148.925 3.83478C147.868 4.8 146.56 6 144.056 6C141.551 6 140.243 4.8 139.186 3.83478C138.24 2.97391 137.544 2.34783 136.07 2.34783C134.595 2.34783 133.899 2.97391 132.953 3.83478C131.896 4.8 130.588 6 128.083 6C125.579 6 124.271 4.8 123.214 3.83478C122.268 2.97391 121.572 2.34783 120.097 2.34783C118.595 2.34783 117.927 2.97391 116.981 3.83478C115.923 4.8 114.616 6 112.111 6C109.607 6 108.299 4.8 107.242 3.83478C106.296 2.97391 105.6 2.34783 104.125 2.34783C102.623 2.34783 101.955 2.97391 101.009 3.83478C99.9513 4.8 98.6435 6 96.1391 6C93.6348 6 92.327 4.8 91.2696 3.83478C90.3235 2.97391 89.6278 2.34783 88.153 2.34783C86.6504 2.34783 85.9826 2.97391 85.0365 3.83478C83.9791 4.8 82.6713 6 80.167 6C77.6626 6 76.3548 4.8 75.2974 3.83478C74.3513 2.97391 73.6556 2.34783 72.1809 2.34783C70.7061 2.34783 70.0104 2.97391 69.0643 3.83478C68.007 4.8 66.6991 6 64.1948 6C61.6904 6 60.3826 4.8 59.3252 3.83478C58.3791 2.97391 57.6835 2.34783 56.2087 2.34783C54.7061 2.34783 54.0383 2.97391 53.0922 3.83478C52.0348 4.8 50.727 6 48.2226 6C45.7183 6 44.4104 4.8 43.353 3.83478C42.407 2.97391 41.7113 2.34783 40.2365 2.34783C38.7339 2.34783 38.0661 2.97391 37.12 3.83478C36.0626 4.8 34.7548 6 32.2504 6C29.7461 6 28.4383 4.8 27.3809 3.83478C26.4348 2.97391 25.7391 2.34783 24.2643 2.34783C22.7617 2.34783 22.0939 2.97391 21.1478 3.83478C19.84 4.8 18.5043 6 16 6C13.4957 6 12.1878 4.8 11.1304 3.83478C10.1843 2.97391 9.4887 2.34783 8.01391 2.34783C6.5113 2.34783 5.84348 2.97391 4.89739 3.83478C3.84 4.8 2.53217 6 0.0278244 6C-2.47652 6 -3.78435 4.8 -4.84174 3.83478C-5.81565 2.97391 -6.5113 2.34783 -7.98609 2.34783C-9.4887 2.34783 -10.1565 2.97391 -11.1026 3.83478C-12.1878 4.8 -13.4957 6 -16 6V3.65217C-14.4974 3.65217 -13.8296 3.02609 -12.8835 2.16522C-11.8261 1.2 -10.5183 0 -7.98609 0C-5.48174 0 -4.17391 1.2 -3.11652 2.16522C-2.17044 3.02609 -1.47478 3.65217 -9.53674e-07 3.65217C1.50261 3.65217 2.17043 3.02609 3.11652 2.16522C4.17391 1.2 5.50957 0 8.01391 0C10.5183 0 11.8261 1.2 12.8835 2.16522C13.8296 3.02609 14.5252 3.65217 16 3.65217C17.5026 3.65217 18.1704 3.02609 19.1165 2.16522C20.1739 1.2 21.4817 0 23.9861 0C26.4904 0 27.7983 1.2 28.8556 2.16522C29.8017 3.02609 30.4974 3.65217 31.9722 3.65217C33.4748 3.65217 34.1426 3.02609 35.0887 2.16522C36.1461 1.2 37.4539 0 39.9583 0C42.4626 0 43.7704 1.2 44.8278 2.16522C45.7739 3.02609 46.4696 3.65217 47.9443 3.65217C49.447 3.65217 50.1148 3.02609 51.0609 2.16522C52.1183 1.2 53.4261 0 55.9304 0C58.4348 0 59.7426 1.2 60.8 2.16522C61.7461 3.02609 62.4417 3.65217 63.9165 3.65217C65.4191 3.65217 66.087 3.02609 67.033 2.16522C68.0904 1.2 69.3983 0 71.9026 0C74.407 0 75.7148 1.2 76.7722 2.16522C77.7183 3.02609 78.4139 3.65217 79.8887 3.65217C81.3913 3.65217 82.0591 3.02609 83.0052 2.16522C84.0626 1.2 85.3704 0 87.8748 0C90.3791 0 91.687 1.2 92.7443 2.16522C93.6904 3.02609 94.3861 3.65217 95.8609 3.65217C97.3356 3.65217 98.0313 3.02609 98.9774 2.16522C100.035 1.2 101.343 0 103.847 0C106.351 0 107.659 1.2 108.717 2.16522C109.663 3.02609 110.358 3.65217 111.833 3.65217C113.336 3.65217 114.003 3.02609 114.95 2.16522C116.007 1.2 117.315 0 119.819 0C122.323 0 123.631 1.2 124.689 2.16522C125.635 3.02609 126.33 3.65217 127.805 3.65217C129.308 3.65217 129.976 3.02609 130.922 2.16522C131.979 1.2 133.287 0 135.791 0C138.296 0 139.603 1.2 140.661 2.16522C141.607 3.02609 142.303 3.65217 143.777 3.65217C145.28 3.65217 145.948 3.02609 146.894 2.16522C147.951 1.2 149.259 0 151.763 0C154.268 0 155.576 1.2 156.633 2.16522C157.579 3.02609 158.275 3.65217 159.75 3.65217C161.252 3.65217 161.92 3.02609 162.866 2.16522C163.923 1.2 165.231 0 167.736 0C170.24 0 171.548 1.2 172.605 2.16522C173.551 3.02609 174.247 3.65217 175.722 3.65217C177.224 3.65217 177.892 3.02609 178.838 2.16522C179.896 1.2 181.203 0 183.708 0C186.212 0 187.52 1.2 188.577 2.16522C189.523 3.02609 190.219 3.65217 191.694 3.65217C193.197 3.65217 193.864 3.02609 194.81 2.16522C195.868 1.2 197.176 0 199.68 0C202.184 0 203.492 1.2 204.55 2.16522C205.496 3.02609 206.191 3.65217 207.666 3.65217C209.169 3.65217 209.837 3.02609 210.783 2.16522C212.174 1.2 213.482 0 216.014 0C218.518 0 219.826 1.2 220.883 2.16522C221.83 3.02609 222.525 3.65217 224 3.65217C225.475 3.65217 226.17 3.02609 227.117 2.16522C228.174 1.2 229.482 0 231.986 0C234.49 0 235.798 1.2 236.856 2.16522C237.802 3.02609 238.497 3.65217 239.972 3.65217C241.447 3.65217 242.143 3.02609 243.089 2.16522C244.174 1.2 245.482 0 248.014 0C250.546 0 251.826 1.2 252.883 2.16522C253.83 3.02609 254.525 3.65217 256 3.65217C257.475 3.65217 258.17 3.02609 259.117 2.16522C260.174 1.2 261.482 0 263.986 0C266.49 0 267.798 1.2 268.856 2.16522C269.802 3.02609 270.497 3.65217 271.972 3.65217C273.475 3.65217 274.143 3.02609 275.089 2.16522C276.146 1.2 277.454 0 279.958 0C282.463 0 283.77 1.2 284.828 2.16522C285.774 3.02609 286.47 3.65217 287.944 3.65217C289.419 3.65217 290.115 3.02609 291.061 2.16522C292.118 1.2 293.426 0 295.93 0C298.435 0 299.743 1.2 300.8 2.16522C301.746 3.02609 302.442 3.65217 303.917 3.65217V6H304Z" fill="#F1F1F1"/>
</g>
<defs>
<clipPath id="clip0_44_95">
<rect width="320" height="3932" fill="white" transform="translate(-16 -2871)"/>
</clipPath>
</defs>
</svg>
